<svg id="968d9766-29f9-46c9-90ff-f92f54bfc9fe" data-name="圖層 1" xmlns="http://www.w3.org/2000/svg" xmlns:xlink="http://www.w3.org/1999/xlink" viewBox="0 0 100 100"><defs><clipPath id="e678e8ce-d383-4ef8-bab2-1ff43e89fc8a"><path d="M21.5,71.5a13.7,13.7,0,0,0,5.2,1.7,18.2,18.2,0,0,0,2.5.2l2.9-.5a8.8,8.8,0,0,0,4-1.8,12.2,12.2,0,0,0,3.9-4.9,33,33,0,0,0,1.2-3.8,13.2,13.2,0,0,0-1.1-8.9,11,11,0,0,0-4.8-5c-.9-.5-1-.9-.5-1.7l3-5a6.1,6.1,0,0,1,.9-.9l.5,1.1,4.7,12.1a15.8,15.8,0,0,0,5.4,7.6,2,2,0,0,1,.6,1,12.7,12.7,0,0,1,.2,1.4c.2.8.1,1-.8,1.1s-1,.1-1.1.8a1.2,1.2,0,0,0,.8,1.3,2.7,2.7,0,0,0,2.3.1,3.2,3.2,0,0,1,2-.2,4.9,4.9,0,0,0,1.8,0l2.9-.8,1.4-.4a1.2,1.2,0,0,1,1.5.5l.7,1a13.1,13.1,0,0,0,7,5,14.7,14.7,0,0,0,6.8.3c3.1-.5,5.5-2.3,7.5-4.6s3.6-8.7,2.4-12l-.8-2.1c-.3-.7-.1-.9.4-2s0-1.5-1-1.8a10.6,10.6,0,0,1-3.1-1.5,14.9,14.9,0,0,0-11.8-2.9,8.4,8.4,0,0,0-3.4,1.5L64,48.6c-.5.3-.6.2-.7.1L62,47.5a1.5,1.5,0,0,1-.4-1.7c.4-1.3.7-2.6,1.1-3.9s.7-2.1,1.1-3.2a1,1,0,0,1,1-.7,5.7,5.7,0,0,0,2-.6,2.2,2.2,0,0,0,1.2-2.5,2.2,2.2,0,0,0-2.1-1.8,12.6,12.6,0,0,0-2.6.1,18.5,18.5,0,0,1-4.1.2,3.2,3.2,0,0,0-1.5.3c-.9.4-.9,1.1,0,1.6l1.5.6,2.2.8,1,.6c-.8,2.7-1.6,5.4-2.5,8L56.1,56.4a1.4,1.4,0,0,1-1.3,1.1H51.7A6.2,6.2,0,0,1,46.5,54l-.8-1.6-1.5-3.7c-1.2-2.8-2.4-5.7-3.5-8.5a6,6,0,0,1,.1-5.4,1.5,1.5,0,0,0-.3-1.8l-1.6-1.8a5.8,5.8,0,0,1-.8-1.2c-.4-.9-.1-1.3.9-1.3h4a2,2,0,0,0,.9-.1,1.6,1.6,0,0,0,.7-.7c.2-.4-.1-.7-.5-.9l-.8-.3c-1.6-.1-3.2-.2-4.9-.2A2.3,2.3,0,0,0,36,29.2a5.1,5.1,0,0,0,.4,1.8,4.6,4.6,0,0,0,1.9,2.2,1.4,1.4,0,0,1,.8,1.4c0,.8-.5,1.1-1.2.7l-.9-.8c-1.2-1-2.4-2.1-3.7-3a1.3,1.3,0,0,0-2,.4A12.7,12.7,0,0,0,29.5,38a3,3,0,0,0,1.8,3.2l2.8,1.2,1.3.5-.7,1.4-1.2,2.1c-.5.8-.7.9-1.6.7a13.3,13.3,0,0,0-4.8-.3,13.1,13.1,0,0,0-6.4,2.4c-4.2,3.2-5.9,7.4-5.3,12.6a12.5,12.5,0,0,0,3.1,7.1l1.3,1.3.8.7Zm38.2-6.9-1.1.4c-.1-.8.3-1.1.8-1.2s.4.2.7.3S59.9,64.5,59.7,64.6Zm5.1-5.4a2.1,2.1,0,0,1,1.1-.5l5-.2h2.4a2.4,2.4,0,0,0,1.7-.9l2.9-3.8c1-1.4,1.7-1.5,3.2-.8a3.8,3.8,0,0,1,2.2,2.5,12.6,12.6,0,0,1,.9,4.6c-.4,5.3-3.9,9.9-9.4,10.8a10.8,10.8,0,0,1-9.9-3.3A10.2,10.2,0,0,1,62,62.5a4.4,4.4,0,0,0-.3-.7Zm-7-2.3,2.3-6.6c.2-.5.5-1,.8-1.7L62.4,50a17.2,17.2,0,0,0-3,7.8h-1C57.6,57.8,57.6,57.8,57.8,57Zm1.6,2.5c0,.5,0,.6,0,.9s0,1.2.9,1.9l-.9.3c-.2,0-.6-.3-.5-.4a2.3,2.3,0,0,0-1-1.9c-.1-.1-.2-.3-.3-.6ZM53,60.7c1.2-.8,2.3-.7,3.4.5a2.6,2.6,0,0,1-.2,3.5,2.1,2.1,0,0,1-2.9.2l.8-.7a6.5,6.5,0,0,0,1-1.3c.3-.6-.1-1-.7-.9a4.5,4.5,0,0,0-1.2.5l-1.1.7A1.9,1.9,0,0,1,53,60.7Zm-1.5-1c-.4.4-.8.5-1.1-.1S51.1,59.3,51.5,59.7ZM17.1,61.9a11.6,11.6,0,0,1,8.3-13.1,11.9,11.9,0,0,1,6-.1q.9.2.6,1.1l-.5,1-4,8c-.4.8-.3,1.2.1,1.4a1.1,1.1,0,0,0,1.5-.7L32.1,53l1.2-2.5c.4-.8.6-.8,1.3-.4l1.1.8c3.6,3.2,5,7.2,3.9,11.9a11.1,11.1,0,0,1-6.4,7.6,7.7,7.7,0,0,1-4.5,1A11.5,11.5,0,0,1,17.1,61.9Z" style="fill:none"/></clipPath></defs><title>traffic-09</title><circle cx="50" cy="50" r="50" style="fill:#43d17d"/><circle cx="50" cy="50" r="45" style="fill:none;stroke:#fff;stroke-miterlimit:10"/><g style="clip-path:url(#e678e8ce-d383-4ef8-bab2-1ff43e89fc8a)"><path d="M21.5,71.5a13.7,13.7,0,0,0,5.2,1.7,18.2,18.2,0,0,0,2.5.2l2.9-.5a8.8,8.8,0,0,0,4-1.8,12.2,12.2,0,0,0,3.9-4.9,33,33,0,0,0,1.2-3.8,13.2,13.2,0,0,0-1.1-8.9,11,11,0,0,0-4.8-5c-.9-.5-1-.9-.5-1.7l3-5a6.1,6.1,0,0,1,.9-.9l.5,1.1,4.7,12.1a15.8,15.8,0,0,0,5.4,7.6,2,2,0,0,1,.6,1,12.7,12.7,0,0,1,.2,1.4c.2.8.1,1-.8,1.1s-1,.1-1.1.8a1.2,1.2,0,0,0,.8,1.3,2.7,2.7,0,0,0,2.3.1,3.2,3.2,0,0,1,2-.2,4.9,4.9,0,0,0,1.8,0l2.9-.8,1.4-.4a1.2,1.2,0,0,1,1.5.5l.7,1a13.1,13.1,0,0,0,7,5,14.7,14.7,0,0,0,6.8.3c3.1-.5,5.5-2.3,7.5-4.6s3.6-8.7,2.4-12l-.8-2.1c-.3-.7-.1-.9.4-2s0-1.5-1-1.8a10.6,10.6,0,0,1-3.1-1.5,14.9,14.9,0,0,0-11.8-2.9,8.4,8.4,0,0,0-3.4,1.5L64,48.6c-.5.3-.6.2-.7.1L62,47.5a1.5,1.5,0,0,1-.4-1.7c.4-1.3.7-2.6,1.1-3.9s.7-2.1,1.1-3.2a1,1,0,0,1,1-.7,5.7,5.7,0,0,0,2-.6,2.2,2.2,0,0,0,1.2-2.5,2.2,2.2,0,0,0-2.1-1.8,12.6,12.6,0,0,0-2.6.1,18.5,18.5,0,0,1-4.1.2,3.2,3.2,0,0,0-1.5.3c-.9.4-.9,1.1,0,1.6l1.5.6,2.2.8,1,.6c-.8,2.7-1.6,5.4-2.5,8L56.1,56.4a1.4,1.4,0,0,1-1.3,1.1H51.7A6.2,6.2,0,0,1,46.5,54l-.8-1.6-1.5-3.7c-1.2-2.8-2.4-5.7-3.5-8.5a6,6,0,0,1,.1-5.4,1.5,1.5,0,0,0-.3-1.8l-1.6-1.8a5.8,5.8,0,0,1-.8-1.2c-.4-.9-.1-1.3.9-1.3h4a2,2,0,0,0,.9-.1,1.6,1.6,0,0,0,.7-.7c.2-.4-.1-.7-.5-.9l-.8-.3c-1.6-.1-3.2-.2-4.9-.2A2.3,2.3,0,0,0,36,29.2a5.1,5.1,0,0,0,.4,1.8,4.6,4.6,0,0,0,1.9,2.2,1.4,1.4,0,0,1,.8,1.4c0,.8-.5,1.1-1.2.7l-.9-.8c-1.2-1-2.4-2.1-3.7-3a1.3,1.3,0,0,0-2,.4A12.7,12.7,0,0,0,29.5,38a3,3,0,0,0,1.8,3.2l2.8,1.2,1.3.5-.7,1.4-1.2,2.1c-.5.8-.7.9-1.6.7a13.3,13.3,0,0,0-4.8-.3,13.1,13.1,0,0,0-6.4,2.4c-4.2,3.2-5.9,7.4-5.3,12.6a12.5,12.5,0,0,0,3.1,7.1l1.3,1.3.8.7Zm38.2-6.9-1.1.4c-.1-.8.3-1.1.8-1.2s.4.2.7.3S59.9,64.5,59.7,64.6Zm5.1-5.4a2.1,2.1,0,0,1,1.1-.5l5-.2h2.4a2.4,2.4,0,0,0,1.7-.9l2.9-3.8c1-1.4,1.7-1.5,3.2-.8a3.8,3.8,0,0,1,2.2,2.5,12.6,12.6,0,0,1,.9,4.6c-.4,5.3-3.9,9.9-9.4,10.8a10.8,10.8,0,0,1-9.9-3.3A10.2,10.2,0,0,1,62,62.5a4.4,4.4,0,0,0-.3-.7Zm-7-2.3,2.3-6.6c.2-.5.5-1,.8-1.7L62.4,50a17.2,17.2,0,0,0-3,7.8h-1C57.6,57.8,57.6,57.8,57.8,57Zm1.6,2.5c0,.5,0,.6,0,.9s0,1.2.9,1.9l-.9.3c-.2,0-.6-.3-.5-.4a2.3,2.3,0,0,0-1-1.9c-.1-.1-.2-.3-.3-.6ZM53,60.7c1.2-.8,2.3-.7,3.4.5a2.6,2.6,0,0,1-.2,3.5,2.1,2.1,0,0,1-2.9.2l.8-.7a6.5,6.5,0,0,0,1-1.3c.3-.6-.1-1-.7-.9a4.5,4.5,0,0,0-1.2.5l-1.1.7A1.9,1.9,0,0,1,53,60.7Zm-1.5-1c-.4.4-.8.5-1.1-.1S51.1,59.3,51.5,59.7ZM17.1,61.9a11.6,11.6,0,0,1,8.3-13.1,11.9,11.9,0,0,1,6-.1q.9.2.6,1.1l-.5,1-4,8c-.4.8-.3,1.2.1,1.4a1.1,1.1,0,0,0,1.5-.7L32.1,53l1.2-2.5c.4-.8.6-.8,1.3-.4l1.1.8c3.6,3.2,5,7.2,3.9,11.9a11.1,11.1,0,0,1-6.4,7.6,7.7,7.7,0,0,1-4.5,1A11.5,11.5,0,0,1,17.1,61.9Z" style="fill:#dfdfdf"/></g><g style="clip-path:url(#e678e8ce-d383-4ef8-bab2-1ff43e89fc8a)"><circle cx="28.7" cy="60.1" r="14.2" style="fill:#595757"/></g><g style="clip-path:url(#e678e8ce-d383-4ef8-bab2-1ff43e89fc8a)"><circle cx="72.9" cy="59.7" r="13.7" style="fill:#595757"/></g><g style="clip-path:url(#e678e8ce-d383-4ef8-bab2-1ff43e89fc8a)"><ellipse cx="54.5" cy="62.9" rx="3.9" ry="3.9" style="fill:#595757"/></g><g style="clip-path:url(#e678e8ce-d383-4ef8-bab2-1ff43e89fc8a)"><ellipse cx="54.5" cy="62.9" rx="3.1" ry="3.1" style="fill:#dfdfdf"/></g><g style="clip-path:url(#e678e8ce-d383-4ef8-bab2-1ff43e89fc8a)"><path d="M75.4,45.4l-1.6-.3c-2-.4-4-.9-5.8.4l-2.1,1.4L64,48.5,62.5,50a12.5,12.5,0,0,0-1.7,1.8l-.5,1a3.2,3.2,0,0,0-.4,1,7.7,7.7,0,0,1-.1,1,8.6,8.6,0,0,0-.4,2.7c0,.3.1.5.1.8s0,.6,0,.9a5,5,0,0,0-.2,1,4.8,4.8,0,0,0,.1,1.2,1.5,1.5,0,0,0,1.9.7l1.2-.7,1.7-1.2a7.8,7.8,0,0,1,1.8-1.1,4.7,4.7,0,0,1,2.3,0l1.2.2h3.2l2.2-.3a6.9,6.9,0,0,0,1.7-.5c.8-.4,1.1-1.5,1.3-2.2a12.7,12.7,0,0,1,.5-1.3,3.3,3.3,0,0,1,.9-1.1l1-.7c.3-.3.5-.2.8,0l1.2.3a2.5,2.5,0,0,0,2.5-.7c.3-.3.3-.8.4-1.2a2,2,0,0,0,.3-.9c0-.5-.7-.9-1-1.2a16,16,0,0,0-5-3.1A26.3,26.3,0,0,0,75.4,45.4Z" style="fill:#f7d237"/></g><g style="clip-path:url(#e678e8ce-d383-4ef8-bab2-1ff43e89fc8a)"><path d="M49.1,54.9a9.6,9.6,0,0,0,2.3,1,7.2,7.2,0,0,0,2.3.5,2.2,2.2,0,0,0,1.6-1.1,20.5,20.5,0,0,0,1.4-2.5A31,31,0,0,0,58,49.7a11.5,11.5,0,0,0,.5-1.6l.2-.7.3-.7a8.4,8.4,0,0,1,.5-1.1l.5-1.3a3.3,3.3,0,0,1,1.2.2l1.3.4c.3.1.2.7.2.9a3.4,3.4,0,0,0-.1,1,7.8,7.8,0,0,0,.2,1,1.2,1.2,0,0,0,.2.5c.1.1,11,9.2,11.3,9.8s.2.4-.6.7h-.4l-.8-.4c-.8-.5-9-7.5-9.5-8.1s-.4-.5-.8-.3a3.6,3.6,0,0,0-.9.8c-.3.3-2.8,6.5-2.9,6.9s13.4-.4,14.7,1.2-13.2.3-14.4.5,0,.1-.4.3a10.5,10.5,0,0,1-1.9.4c-1,.2-5.7,1.4-6.2,1.3a4.3,4.3,0,0,1-2-.7l-1.1-.7h-.1a6.4,6.4,0,0,1-1.8-1.8,6.6,6.6,0,0,1-.4-1l-.3-1.1a13.1,13.1,0,0,0-1-2.7A19.3,19.3,0,0,0,41,50.4a21.4,21.4,0,0,0-2.4-2.6c-.5-.4-1.2-.8-1.8-.5a4.3,4.3,0,0,0-1.4,1.6l-1.2,2.1-2.7,5.6a8.6,8.6,0,0,1-2.3,3.4c-.6.4-1.9,1.2-2.5.3a3,3,0,0,1,0-2.2,19.8,19.8,0,0,1,1.4-3.4l.9-1.8.8-1.6a3.2,3.2,0,0,1,.7-.8l1-1.1a4,4,0,0,0,.9-1.1l.5-1.2.5-.9c.5-.9.9-1.8,1.4-2.7l.6-1,.5-.9,1.3-2.2.6-1a6.8,6.8,0,0,0,.1-.7c.1-.5.4-1,1-1a3,3,0,0,1,1.9.8A10,10,0,0,1,42.3,39a2.4,2.4,0,0,1,.7,1.7,5.6,5.6,0,0,0,.1,2.2,12.9,12.9,0,0,0,.8,2L45,47.1a4.8,4.8,0,0,1,.2,1.1,6.6,6.6,0,0,0,.4,1.1,25.7,25.7,0,0,0,1,2.5l1,1.5.8.8Z" style="fill:#fc6738"/></g><g style="clip-path:url(#e678e8ce-d383-4ef8-bab2-1ff43e89fc8a)"><path d="M69.2,35.4a1.2,1.2,0,0,1-.1.6,3.7,3.7,0,0,1-.7,1.1,3.4,3.4,0,0,1-.9.8,3.3,3.3,0,0,1-1.4.2H64.6l-1.7-.4-.8-.4a1.5,1.5,0,0,0-.9-.1,5.2,5.2,0,0,1-3-.5,2.5,2.5,0,0,1-1.5-1.8,1.2,1.2,0,0,1,.1-1l.7-.5a4.8,4.8,0,0,1,1.6-.8,12.8,12.8,0,0,1,3.2-.3l2.9.2a4.4,4.4,0,0,1,2,.6,5.8,5.8,0,0,1,1.7,1.8A2,2,0,0,1,69.2,35.4Z" style="fill:#595757"/></g><g style="clip-path:url(#e678e8ce-d383-4ef8-bab2-1ff43e89fc8a)"><path d="M32,46.9h-.2a38.2,38.2,0,0,0-5.3,0,10.1,10.1,0,0,0-3,.4c-.2.1-.8.2-.8.5s1.3.4,1.5.4l2-.3a11.6,11.6,0,0,1,5.8.3l1.6.4,1.4.6a3.3,3.3,0,0,1,.9.7l.8.5.6.5a15.6,15.6,0,0,1,1.3,1.4A6.9,6.9,0,0,1,40,54.8a14.9,14.9,0,0,1,.4,1.5l.3,1.7c.1.5.1.9.2,1.4a9.4,9.4,0,0,1,0,1.2,4.4,4.4,0,0,0,0,.7c.1.3.2.5.4.5s.9-.7.9-1.3.1-.8.2-1.1a4.3,4.3,0,0,0-.2-1.4,13.4,13.4,0,0,0-.6-2,11,11,0,0,1-.4-1.8,7.8,7.8,0,0,0-1.5-2.9,11.6,11.6,0,0,0-2-1.9,14.2,14.2,0,0,0-2.4-1.7,9.1,9.1,0,0,0-1.9-.6Z" style="fill:#f7d237"/></g><g style="clip-path:url(#e678e8ce-d383-4ef8-bab2-1ff43e89fc8a)"><path d="M44.9,27.6A3,3,0,0,0,43,26.4l-.8-.3H40.9c-.5,0-1.1-.2-1.5.2s-.2.3-.4.4l-.8.2c-.2.1-.2.3-.2.5s-.1.5.1.8a1.3,1.3,0,0,0,.6.5l.7.3a20.3,20.3,0,0,0,2,.7,3.6,3.6,0,0,0,2.1.3,1.7,1.7,0,0,0,1.5-.9A1.3,1.3,0,0,0,44.9,27.6Z" style="fill:#595757"/></g><g style="clip-path:url(#e678e8ce-d383-4ef8-bab2-1ff43e89fc8a)"><path d="M35.5,43c-.3.5-.8.3-1.3.4a2,2,0,0,1-1-.3c-1.7-.8-3.6-1.7-4-3.7a8.5,8.5,0,0,1,.1-3.3,16.7,16.7,0,0,1,.7-2.3l.3-1.1a1.3,1.3,0,0,1,.1-.4l.4-.4a3.5,3.5,0,0,1,1.5-.9,3.6,3.6,0,0,1,2.2.4,10.6,10.6,0,0,1,2.5,2.1c.5.5,2.1.7,2.1,1.5a7.4,7.4,0,0,1-.5,1.9C38,38.3,35.6,42.7,35.5,43Z" style="fill:#595757"/></g><g style="clip-path:url(#e678e8ce-d383-4ef8-bab2-1ff43e89fc8a)"><path d="M55.1,62.3a.8.8,0,0,1,0,1.1L52.5,66a.8.8,0,0,1-1.1,0h0a.8.8,0,0,1,0-1.1L54,62.3a.8.8,0,0,1,1.1,0Z" style="fill:#dfdfdf"/></g><g style="clip-path:url(#e678e8ce-d383-4ef8-bab2-1ff43e89fc8a)"><path d="M50.6,67.9l-1.4-.7-.8-.5a1.7,1.7,0,0,1-.4-1.1.8.8,0,0,1,.5-.9,1.7,1.7,0,0,1,1.8.4,7.9,7.9,0,0,1,2,1.7c.4.7,0,1.1-.7,1.2Z" style="fill:#595757"/></g></svg>